# xmcd
#
# Track frame offsets: 
#        150
#        12942
#        24083
#        35938
#        47755
#        59835
#        71427
#        83844
#        95661
#        108153
#        118545
#        128824
#        138840
#        152006
#        163972
#        174550
#        187791
#        200133
#        211500
#        225492
#        238697
#        249801
#        261168
#        275121
#
# Disc length: 3847 seconds
#
# Revision: 0
# Processed by: cddbd v1.5.2PL0 Copyright (c) Steve Scherf et al.
# Submitted via: ExactAudioCopy v0.99pb4
#
DISCID=4b0f0518
DTITLE=Various Artist - New York Blues and R&B
DYEAR=2008
DGENRE=Blues
TTITLE0=Joe 'Mr Google Eyes' August - Rough and Rocky Road
TTITLE1=Joe 'Mr Google Eyes' August - No Wine, No Women
TTITLE2=Albinia Jones (w.Sam Price and His Rockin' Rhythm) - Hole In The
TTITLE2=Wall Tonight
TTITLE3=Ralph Willis (f.Brownie McGee) - Income Tax Blues
TTITLE4=Ralph Willis (f.Brownie McGee) - Bed Tick
TTITLE5=Max 'Scatman' Bailey (w.Buddy Tate's Ork) - Leave It Alone
TTITLE6=H-Bomb Ferguson - I Love My baby
TTITLE7=Lightnin' Jr (Champion Jack Dupree) and The Empires - Ragged and H
TTITLE7=ungry
TTITLE8=Bob Gaddy and His Keys - Slow Down Baby
TTITLE9=Al Jackson - Let's Drink Some Whiskey
TTITLE10=Varetta Dillard - Them There Eyes
TTITLE11=Bob Gaddy and His Alley Cats - I Believe You Got A Side Kick
TTITLE12=Big Joe Turner (w.'Piano Man' Walls and His Orchestra) - Sweet 
TTITLE12=Sixteen
TTITLE13=Sonny 'Hootin' Terry and His Night Owls - Harmonica Hop
TTITLE14=Bob Gaddy - Little Girl's Boogie
TTITLE15=Sonny 'Hootin' Terry and His Night Owls - Harmonica Train
TTITLE16=Little Bobby Harris - Love Love Love
TTITLE17=Brownie McGee and The Jook Block Busters - Meet You In The Morn
TTITLE17=ing
TTITLE18=Bob Gaddy and His Alley Cats - Bicycle Boogie 
TTITLE19=Sonny 'Hootin' Terry and His Night owls - Doggin' My Heart Arou
TTITLE19=nd
TTITLE20=Big John Greer - I'm The Fat Man
TTITLE21=Brownie McGee and His Block Busters - I Feel So Good
TTITLE22=Champion Jack Dupree - Drunk Again
TTITLE23=Brownie McGee - Daisy
EXTD=
EXTT0=
EXTT1=
EXTT2=
EXTT3=
EXTT4=
EXTT5=
EXTT6=
EXTT7=
EXTT8=
EXTT9=
EXTT10=
EXTT11=
EXTT12=
EXTT13=
EXTT14=
EXTT15=
EXTT16=
EXTT17=
EXTT18=
EXTT19=
EXTT20=
EXTT21=
EXTT22=
EXTT23=
PLAYORDER=
